<?xml version="1.0" encoding="utf-8"?>
<!-- Generator: Adobe Illustrator 16.0.0, SVG Export Plug-In . SVG Version: 6.00 Build 0)  -->
<!DOCTYPE svg PUBLIC "-//W3C//DTD SVG 1.1//EN" "http://www.w3.org/Graphics/SVG/1.1/DTD/svg11.dtd">
<svg version="1.1" id="Layer_1" xmlns="http://www.w3.org/2000/svg" xmlns:xlink="http://www.w3.org/1999/xlink" x="0px" y="0px"
	 width="281.005px" height="250.476px" viewBox="0 0 281.005 250.476" enable-background="new 0 0 281.005 250.476"
	 xml:space="preserve">
<g>
	<defs>
		<rect id="SVGID_1_" width="281.005" height="250.476"/>
	</defs>
	<clipPath id="SVGID_2_">
		<use xlink:href="#SVGID_1_"  overflow="visible"/>
	</clipPath>
	<path clip-path="url(#SVGID_2_)" fill="#FFFFFF" d="M166.897,76.717c0,26.799-11.816,48.524-26.393,48.524
		c-14.579,0-26.396-21.725-26.396-48.524c0-26.799,11.817-48.523,26.396-48.523C155.081,28.194,166.897,49.918,166.897,76.717"/>
	
		<ellipse clip-path="url(#SVGID_2_)" fill="none" stroke="#000000" stroke-width="0.85" stroke-miterlimit="10" cx="140.503" cy="76.717" rx="26.394" ry="48.524"/>
	<path clip-path="url(#SVGID_2_)" fill="#FFFFFF" d="M174.229,76.844c0,26.799-11.816,48.524-26.393,48.524
		c-14.579,0-26.396-21.725-26.396-48.524c0-26.799,11.817-48.523,26.396-48.523C162.413,28.321,174.229,50.045,174.229,76.844"/>
	
		<ellipse clip-path="url(#SVGID_2_)" fill="none" stroke="#000000" stroke-width="0.85" stroke-miterlimit="10" cx="147.835" cy="76.844" rx="26.394" ry="48.524"/>
	<path clip-path="url(#SVGID_2_)" fill="#FFFFFF" d="M181.439,77.222c0,26.799-11.816,48.524-26.394,48.524
		c-14.579,0-26.396-21.725-26.396-48.524c0-26.799,11.817-48.523,26.396-48.523C169.623,28.699,181.439,50.423,181.439,77.222"/>
	
		<ellipse clip-path="url(#SVGID_2_)" fill="none" stroke="#000000" stroke-width="0.85" stroke-miterlimit="10" cx="155.045" cy="77.222" rx="26.395" ry="48.524"/>
	<path clip-path="url(#SVGID_2_)" fill="#FFFFFF" d="M188.51,77.842c0,26.799-11.816,48.524-26.393,48.524
		c-14.579,0-26.396-21.725-26.396-48.524c0-26.799,11.817-48.523,26.396-48.523C176.693,29.319,188.51,51.043,188.51,77.842"/>
	
		<ellipse clip-path="url(#SVGID_2_)" fill="none" stroke="#000000" stroke-width="0.85" stroke-miterlimit="10" cx="162.115" cy="77.842" rx="26.394" ry="48.524"/>
	<path clip-path="url(#SVGID_2_)" fill="#FFFFFF" d="M195.43,78.696c0,26.799-11.817,48.524-26.394,48.524
		c-14.579,0-26.396-21.725-26.396-48.524c0-26.799,11.816-48.523,26.396-48.523C183.612,30.173,195.43,51.897,195.43,78.696"/>
	
		<ellipse clip-path="url(#SVGID_2_)" fill="none" stroke="#000000" stroke-width="0.85" stroke-miterlimit="10" cx="169.035" cy="78.696" rx="26.395" ry="48.524"/>
	<path clip-path="url(#SVGID_2_)" fill="#FFFFFF" d="M202.182,79.777c0,26.799-11.816,48.524-26.393,48.524
		c-14.579,0-26.396-21.725-26.396-48.524c0-26.799,11.816-48.523,26.396-48.523C190.365,31.254,202.182,52.979,202.182,79.777"/>
	
		<ellipse clip-path="url(#SVGID_2_)" fill="none" stroke="#000000" stroke-width="0.85" stroke-miterlimit="10" cx="175.788" cy="79.777" rx="26.394" ry="48.524"/>
	<path clip-path="url(#SVGID_2_)" fill="#FFFFFF" d="M208.755,81.078c0,26.799-11.817,48.524-26.394,48.524
		c-14.579,0-26.396-21.725-26.396-48.524c0-26.799,11.816-48.523,26.396-48.523C196.938,32.555,208.755,54.279,208.755,81.078"/>
	
		<ellipse clip-path="url(#SVGID_2_)" fill="none" stroke="#000000" stroke-width="0.85" stroke-miterlimit="10" cx="182.36" cy="81.078" rx="26.395" ry="48.524"/>
	<path clip-path="url(#SVGID_2_)" fill="#FFFFFF" d="M215.133,82.59c0,26.799-11.817,48.524-26.394,48.524
		c-14.579,0-26.396-21.725-26.396-48.524c0-26.799,11.816-48.523,26.396-48.523C203.315,34.067,215.133,55.791,215.133,82.59"/>
	
		<ellipse clip-path="url(#SVGID_2_)" fill="none" stroke="#000000" stroke-width="0.85" stroke-miterlimit="10" cx="188.738" cy="82.59" rx="26.395" ry="48.524"/>
	<path clip-path="url(#SVGID_2_)" fill="#FFFFFF" d="M221.302,84.306c0,26.799-11.816,48.524-26.394,48.524
		c-14.579,0-26.396-21.725-26.396-48.524c0-26.799,11.816-48.523,26.396-48.523C209.485,35.783,221.302,57.507,221.302,84.306"/>
	
		<ellipse clip-path="url(#SVGID_2_)" fill="none" stroke="#000000" stroke-width="0.85" stroke-miterlimit="10" cx="194.907" cy="84.306" rx="26.395" ry="48.524"/>
	<path clip-path="url(#SVGID_2_)" fill="#FFFFFF" d="M227.249,86.217c0,26.799-11.817,48.524-26.394,48.524
		c-14.579,0-26.396-21.725-26.396-48.524c0-26.799,11.816-48.523,26.396-48.523C215.432,37.694,227.249,59.418,227.249,86.217"/>
	
		<ellipse clip-path="url(#SVGID_2_)" fill="none" stroke="#000000" stroke-width="0.85" stroke-miterlimit="10" cx="200.854" cy="86.217" rx="26.395" ry="48.524"/>
	<path clip-path="url(#SVGID_2_)" fill="#FFFFFF" d="M232.958,88.315c0,26.799-11.816,48.524-26.394,48.524
		c-14.579,0-26.396-21.725-26.396-48.524c0-26.799,11.816-48.523,26.396-48.523C221.142,39.792,232.958,61.517,232.958,88.315"/>
	
		<ellipse clip-path="url(#SVGID_2_)" fill="none" stroke="#000000" stroke-width="0.85" stroke-miterlimit="10" cx="206.563" cy="88.315" rx="26.395" ry="48.524"/>
	<path clip-path="url(#SVGID_2_)" fill="#FFFFFF" d="M238.417,90.595c0,26.799-11.816,48.524-26.394,48.524
		c-14.579,0-26.396-21.725-26.396-48.524c0-26.798,11.816-48.522,26.396-48.522C226.601,42.073,238.417,63.797,238.417,90.595"/>
	
		<ellipse clip-path="url(#SVGID_2_)" fill="none" stroke="#000000" stroke-width="0.85" stroke-miterlimit="10" cx="212.022" cy="90.595" rx="26.395" ry="48.524"/>
	<path clip-path="url(#SVGID_2_)" fill="#FFFFFF" d="M243.611,93.047c0,26.799-11.817,48.524-26.394,48.524
		c-14.579,0-26.396-21.725-26.396-48.524c0-26.798,11.817-48.522,26.396-48.522C231.794,44.525,243.611,66.249,243.611,93.047"/>
	
		<ellipse clip-path="url(#SVGID_2_)" fill="none" stroke="#000000" stroke-width="0.85" stroke-miterlimit="10" cx="217.216" cy="93.047" rx="26.395" ry="48.524"/>
	<path clip-path="url(#SVGID_2_)" fill="#FFFFFF" d="M248.525,95.664c0,26.799-11.816,48.524-26.394,48.524
		c-14.579,0-26.396-21.725-26.396-48.524c0-26.799,11.816-48.523,26.396-48.523C236.709,47.141,248.525,68.865,248.525,95.664"/>
	
		<ellipse clip-path="url(#SVGID_2_)" fill="none" stroke="#000000" stroke-width="0.85" stroke-miterlimit="10" cx="222.131" cy="95.664" rx="26.395" ry="48.524"/>
	<path clip-path="url(#SVGID_2_)" fill="#FFFFFF" d="M253.146,98.438c0,26.799-11.816,48.524-26.394,48.524
		c-14.579,0-26.396-21.725-26.396-48.524c0-26.799,11.816-48.523,26.396-48.523C241.33,49.916,253.146,71.64,253.146,98.438"/>
	
		<ellipse clip-path="url(#SVGID_2_)" fill="none" stroke="#000000" stroke-width="0.85" stroke-miterlimit="10" cx="226.752" cy="98.438" rx="26.395" ry="48.524"/>
	<path clip-path="url(#SVGID_2_)" fill="#FFFFFF" d="M257.461,101.361c0,26.799-11.817,48.524-26.395,48.524
		c-14.579,0-26.396-21.725-26.396-48.524c0-26.798,11.816-48.522,26.396-48.522C245.644,52.839,257.461,74.563,257.461,101.361"/>
	
		<ellipse clip-path="url(#SVGID_2_)" fill="none" stroke="#000000" stroke-width="0.85" stroke-miterlimit="10" cx="231.066" cy="101.361" rx="26.395" ry="48.524"/>
	<path clip-path="url(#SVGID_2_)" fill="#FFFFFF" d="M261.453,104.427c0,26.799-11.817,48.524-26.395,48.524
		c-14.579,0-26.396-21.725-26.396-48.524c0-26.799,11.816-48.523,26.396-48.523C249.636,55.904,261.453,77.628,261.453,104.427"/>
	
		<ellipse clip-path="url(#SVGID_2_)" fill="none" stroke="#000000" stroke-width="0.85" stroke-miterlimit="10" cx="235.058" cy="104.427" rx="26.395" ry="48.524"/>
	<path clip-path="url(#SVGID_2_)" fill="#FFFFFF" d="M265.109,107.625c0,26.799-11.817,48.524-26.395,48.524
		c-14.579,0-26.396-21.725-26.396-48.524c0-26.798,11.816-48.522,26.396-48.522C253.292,59.103,265.109,80.827,265.109,107.625"/>
	
		<ellipse clip-path="url(#SVGID_2_)" fill="none" stroke="#000000" stroke-width="0.85" stroke-miterlimit="10" cx="238.714" cy="107.625" rx="26.395" ry="48.524"/>
	<path clip-path="url(#SVGID_2_)" fill="#FFFFFF" d="M268.416,110.95c0,26.799-11.817,48.524-26.395,48.524
		c-14.579,0-26.396-21.725-26.396-48.524c0-26.799,11.816-48.523,26.396-48.523C256.599,62.427,268.416,84.151,268.416,110.95"/>
	
		<ellipse clip-path="url(#SVGID_2_)" fill="none" stroke="#000000" stroke-width="0.85" stroke-miterlimit="10" cx="242.021" cy="110.95" rx="26.395" ry="48.524"/>
	<path clip-path="url(#SVGID_2_)" fill="#FFFFFF" d="M271.358,114.394c0,26.799-11.817,48.524-26.395,48.524
		c-14.579,0-26.396-21.725-26.396-48.524c0-26.799,11.816-48.523,26.396-48.523C259.541,65.871,271.358,87.595,271.358,114.394"/>
	
		<ellipse clip-path="url(#SVGID_2_)" fill="none" stroke="#000000" stroke-width="0.85" stroke-miterlimit="10" cx="244.963" cy="114.394" rx="26.395" ry="48.524"/>
	<path clip-path="url(#SVGID_2_)" fill="#FFFFFF" d="M273.923,117.947c0,26.799-11.817,48.524-26.395,48.524
		c-14.579,0-26.396-21.725-26.396-48.524c0-26.799,11.816-48.523,26.396-48.523C262.105,69.424,273.923,91.148,273.923,117.947"/>
	
		<ellipse clip-path="url(#SVGID_2_)" fill="none" stroke="#000000" stroke-width="0.85" stroke-miterlimit="10" cx="247.528" cy="117.947" rx="26.395" ry="48.524"/>
	<path clip-path="url(#SVGID_2_)" fill="#FFFFFF" d="M276.096,121.604c0,26.799-11.817,48.524-26.396,48.524
		s-26.396-21.725-26.396-48.524c0-26.799,11.817-48.523,26.396-48.523S276.096,94.805,276.096,121.604"/>
	
		<ellipse clip-path="url(#SVGID_2_)" fill="none" stroke="#000000" stroke-width="0.85" stroke-miterlimit="10" cx="249.7" cy="121.604" rx="26.396" ry="48.524"/>
	<path clip-path="url(#SVGID_2_)" fill="#FFFFFF" d="M277.861,125.354c0,26.799-11.817,48.524-26.395,48.524
		c-14.579,0-26.396-21.725-26.396-48.524c0-26.798,11.817-48.522,26.396-48.522C266.044,76.833,277.861,98.557,277.861,125.354"/>
	
		<ellipse clip-path="url(#SVGID_2_)" fill="none" stroke="#000000" stroke-width="0.85" stroke-miterlimit="10" cx="251.466" cy="125.354" rx="26.396" ry="48.524"/>
	<path clip-path="url(#SVGID_2_)" fill="#FFFFFF" d="M279.207,129.194c0,26.799-11.817,48.523-26.395,48.523
		c-14.579,0-26.396-21.725-26.396-48.523c0-26.798,11.817-48.522,26.396-48.522C267.39,80.671,279.207,102.396,279.207,129.194"/>
	
		<ellipse clip-path="url(#SVGID_2_)" fill="none" stroke="#000000" stroke-width="0.85" stroke-miterlimit="10" cx="252.812" cy="129.194" rx="26.396" ry="48.523"/>
	<path clip-path="url(#SVGID_2_)" fill="#FFFFFF" d="M280.118,133.113c0,26.799-11.817,48.523-26.396,48.523
		c-14.579,0-26.396-21.725-26.396-48.523c0-26.799,11.816-48.523,26.396-48.523C268.301,84.589,280.118,106.313,280.118,133.113"/>
	
		<ellipse clip-path="url(#SVGID_2_)" fill="none" stroke="#000000" stroke-width="0.85" stroke-miterlimit="10" cx="253.723" cy="133.113" rx="26.396" ry="48.523"/>
	<path clip-path="url(#SVGID_2_)" fill="#FFFFFF" d="M280.58,137.103c0,26.799-11.817,48.523-26.395,48.523
		c-14.579,0-26.396-21.725-26.396-48.523c0-26.799,11.817-48.523,26.396-48.523C268.763,88.58,280.58,110.304,280.58,137.103"/>
	
		<ellipse clip-path="url(#SVGID_2_)" fill="none" stroke="#000000" stroke-width="0.85" stroke-miterlimit="10" cx="254.185" cy="137.103" rx="26.396" ry="48.523"/>
	<path clip-path="url(#SVGID_2_)" fill="#FFFFFF" d="M280.58,141.142c0,26.799-11.817,48.523-26.395,48.523
		c-14.579,0-26.396-21.725-26.396-48.523c0-26.798,11.817-48.522,26.396-48.522C268.763,92.62,280.58,114.344,280.58,141.142"/>
	
		<ellipse clip-path="url(#SVGID_2_)" fill="none" stroke="#000000" stroke-width="0.85" stroke-miterlimit="10" cx="254.185" cy="141.142" rx="26.396" ry="48.523"/>
	<path clip-path="url(#SVGID_2_)" fill="#FFFFFF" d="M280.118,145.133c0,26.799-11.817,48.523-26.396,48.523
		c-14.579,0-26.396-21.725-26.396-48.523c0-26.799,11.816-48.523,26.396-48.523C268.301,96.61,280.118,118.334,280.118,145.133"/>
	
		<ellipse clip-path="url(#SVGID_2_)" fill="none" stroke="#000000" stroke-width="0.85" stroke-miterlimit="10" cx="253.723" cy="145.133" rx="26.396" ry="48.523"/>
	<path clip-path="url(#SVGID_2_)" fill="#FFFFFF" d="M279.207,149.051c0,26.799-11.817,48.523-26.396,48.523
		c-14.579,0-26.396-21.725-26.396-48.523c0-26.798,11.816-48.522,26.396-48.522C267.39,100.529,279.207,122.253,279.207,149.051"/>
	
		<ellipse clip-path="url(#SVGID_2_)" fill="none" stroke="#000000" stroke-width="0.85" stroke-miterlimit="10" cx="252.812" cy="149.051" rx="26.396" ry="48.523"/>
	<path clip-path="url(#SVGID_2_)" fill="#FFFFFF" d="M277.861,152.89c0,26.799-11.817,48.523-26.395,48.523
		c-14.579,0-26.396-21.725-26.396-48.523c0-26.798,11.817-48.522,26.396-48.522C266.044,104.368,277.861,126.092,277.861,152.89"/>
	
		<ellipse clip-path="url(#SVGID_2_)" fill="none" stroke="#000000" stroke-width="0.85" stroke-miterlimit="10" cx="251.466" cy="152.89" rx="26.396" ry="48.523"/>
	<path clip-path="url(#SVGID_2_)" fill="#FFFFFF" d="M276.096,156.642c0,26.799-11.817,48.523-26.396,48.523
		c-14.579,0-26.396-21.725-26.396-48.523c0-26.798,11.816-48.522,26.396-48.522C264.278,108.12,276.096,129.844,276.096,156.642"/>
	
		<ellipse clip-path="url(#SVGID_2_)" fill="none" stroke="#000000" stroke-width="0.85" stroke-miterlimit="10" cx="249.7" cy="156.642" rx="26.396" ry="48.523"/>
	<path clip-path="url(#SVGID_2_)" fill="#FFFFFF" d="M273.924,160.298c0,26.799-11.817,48.523-26.396,48.523
		c-14.579,0-26.396-21.725-26.396-48.523s11.817-48.522,26.396-48.522C262.106,111.776,273.924,133.5,273.924,160.298"/>
	
		<ellipse clip-path="url(#SVGID_2_)" fill="none" stroke="#000000" stroke-width="0.85" stroke-miterlimit="10" cx="247.528" cy="160.298" rx="26.396" ry="48.523"/>
	<path clip-path="url(#SVGID_2_)" fill="#FFFFFF" d="M271.359,163.852c0,26.799-11.817,48.523-26.396,48.523
		c-14.579,0-26.396-21.725-26.396-48.523s11.817-48.522,26.396-48.522C259.542,115.33,271.359,137.053,271.359,163.852"/>
	
		<ellipse clip-path="url(#SVGID_2_)" fill="none" stroke="#000000" stroke-width="0.85" stroke-miterlimit="10" cx="244.963" cy="163.852" rx="26.396" ry="48.523"/>
	<path clip-path="url(#SVGID_2_)" fill="#FFFFFF" d="M268.417,167.295c0,26.799-11.818,48.523-26.396,48.523
		c-14.579,0-26.396-21.725-26.396-48.523c0-26.798,11.816-48.522,26.396-48.522C256.599,118.773,268.417,140.498,268.417,167.295"/>
	
		<ellipse clip-path="url(#SVGID_2_)" fill="none" stroke="#000000" stroke-width="0.85" stroke-miterlimit="10" cx="242.021" cy="167.295" rx="26.396" ry="48.523"/>
	<path clip-path="url(#SVGID_2_)" fill="#FFFFFF" d="M265.11,170.62c0,26.8-11.817,48.523-26.396,48.523
		c-14.579,0-26.396-21.724-26.396-48.523c0-26.799,11.817-48.522,26.396-48.522C253.293,122.097,265.11,143.821,265.11,170.62"/>
	
		<ellipse clip-path="url(#SVGID_2_)" fill="none" stroke="#000000" stroke-width="0.85" stroke-miterlimit="10" cx="238.714" cy="170.62" rx="26.396" ry="48.523"/>
	<path clip-path="url(#SVGID_2_)" fill="#FFFFFF" d="M261.454,173.819c0,26.799-11.818,48.523-26.396,48.523
		c-14.579,0-26.396-21.725-26.396-48.523s11.816-48.522,26.396-48.522C249.636,125.296,261.454,147.02,261.454,173.819"/>
	
		<ellipse clip-path="url(#SVGID_2_)" fill="none" stroke="#000000" stroke-width="0.85" stroke-miterlimit="10" cx="235.058" cy="173.819" rx="26.396" ry="48.523"/>
	<path clip-path="url(#SVGID_2_)" fill="#FFFFFF" d="M257.462,176.883c0,26.799-11.817,48.523-26.396,48.523
		s-26.396-21.725-26.396-48.523c0-26.798,11.816-48.522,26.396-48.522S257.462,150.085,257.462,176.883"/>
	
		<ellipse clip-path="url(#SVGID_2_)" fill="none" stroke="#000000" stroke-width="0.85" stroke-miterlimit="10" cx="231.066" cy="176.883" rx="26.396" ry="48.523"/>
	<path clip-path="url(#SVGID_2_)" fill="#FFFFFF" d="M253.148,179.807c0,26.799-11.818,48.523-26.396,48.523
		c-14.579,0-26.396-21.725-26.396-48.523c0-26.8,11.817-48.523,26.396-48.523C241.33,131.284,253.148,153.007,253.148,179.807"/>
	
		<ellipse clip-path="url(#SVGID_2_)" fill="none" stroke="#000000" stroke-width="0.85" stroke-miterlimit="10" cx="226.752" cy="179.807" rx="26.396" ry="48.523"/>
	<path clip-path="url(#SVGID_2_)" fill="#FFFFFF" d="M248.527,182.581c0,26.799-11.818,48.523-26.396,48.523
		c-14.579,0-26.396-21.725-26.396-48.523s11.817-48.522,26.396-48.522C236.709,134.058,248.527,155.782,248.527,182.581"/>
	
		<ellipse clip-path="url(#SVGID_2_)" fill="none" stroke="#000000" stroke-width="0.85" stroke-miterlimit="10" cx="222.131" cy="182.581" rx="26.396" ry="48.523"/>
	<path clip-path="url(#SVGID_2_)" fill="#FFFFFF" d="M243.612,185.198c0,26.799-11.817,48.523-26.396,48.523
		c-14.579,0-26.396-21.725-26.396-48.523c0-26.8,11.817-48.523,26.396-48.523C231.795,136.674,243.612,158.398,243.612,185.198"/>
	
		<ellipse clip-path="url(#SVGID_2_)" fill="none" stroke="#000000" stroke-width="0.85" stroke-miterlimit="10" cx="217.216" cy="185.198" rx="26.396" ry="48.523"/>
	<path clip-path="url(#SVGID_2_)" fill="#FFFFFF" d="M238.419,187.649c0,26.799-11.817,48.523-26.396,48.523
		s-26.396-21.725-26.396-48.523s11.817-48.522,26.396-48.522S238.419,160.85,238.419,187.649"/>
	
		<ellipse clip-path="url(#SVGID_2_)" fill="none" stroke="#000000" stroke-width="0.85" stroke-miterlimit="10" cx="212.022" cy="187.649" rx="26.396" ry="48.523"/>
	<path clip-path="url(#SVGID_2_)" fill="#FFFFFF" d="M232.96,189.929c0,26.799-11.817,48.523-26.396,48.523
		s-26.396-21.725-26.396-48.523c0-26.8,11.816-48.523,26.396-48.523S232.96,163.129,232.96,189.929"/>
	
		<ellipse clip-path="url(#SVGID_2_)" fill="none" stroke="#000000" stroke-width="0.85" stroke-miterlimit="10" cx="206.564" cy="189.929" rx="26.396" ry="48.523"/>
	<path clip-path="url(#SVGID_2_)" fill="#FFFFFF" d="M227.251,192.028c0,26.799-11.818,48.523-26.396,48.523
		c-14.579,0-26.396-21.725-26.396-48.523s11.817-48.522,26.396-48.522C215.433,143.505,227.251,165.229,227.251,192.028"/>
	
		<ellipse clip-path="url(#SVGID_2_)" fill="none" stroke="#000000" stroke-width="0.85" stroke-miterlimit="10" cx="200.854" cy="192.028" rx="26.396" ry="48.523"/>
	<path clip-path="url(#SVGID_2_)" fill="#FFFFFF" d="M221.304,193.939c0,26.799-11.817,48.523-26.396,48.523
		s-26.396-21.725-26.396-48.523s11.817-48.522,26.396-48.522S221.304,167.14,221.304,193.939"/>
	
		<ellipse clip-path="url(#SVGID_2_)" fill="none" stroke="#000000" stroke-width="0.85" stroke-miterlimit="10" cx="194.907" cy="193.939" rx="26.396" ry="48.523"/>
	<path clip-path="url(#SVGID_2_)" fill="#FFFFFF" d="M215.135,195.654c0,26.799-11.818,48.523-26.396,48.523
		c-14.579,0-26.396-21.725-26.396-48.523c0-26.798,11.817-48.522,26.396-48.522C203.316,147.131,215.135,168.856,215.135,195.654"/>
	
		<ellipse clip-path="url(#SVGID_2_)" fill="none" stroke="#000000" stroke-width="0.85" stroke-miterlimit="10" cx="188.738" cy="195.654" rx="26.396" ry="48.523"/>
	<path clip-path="url(#SVGID_2_)" fill="#FFFFFF" d="M208.757,197.166c0,26.799-11.818,48.523-26.396,48.523
		c-14.579,0-26.396-21.725-26.396-48.523s11.817-48.522,26.396-48.522C196.938,148.643,208.757,170.367,208.757,197.166"/>
	
		<ellipse clip-path="url(#SVGID_2_)" fill="none" stroke="#000000" stroke-width="0.85" stroke-miterlimit="10" cx="182.36" cy="197.166" rx="26.396" ry="48.523"/>
	<path clip-path="url(#SVGID_2_)" fill="#FFFFFF" d="M202.185,198.466c0,26.799-11.818,48.523-26.396,48.523
		c-14.58,0-26.396-21.725-26.396-48.523c0-26.798,11.816-48.522,26.396-48.522C190.366,149.944,202.185,171.668,202.185,198.466"/>
	
		<ellipse clip-path="url(#SVGID_2_)" fill="none" stroke="#000000" stroke-width="0.85" stroke-miterlimit="10" cx="175.788" cy="198.466" rx="26.396" ry="48.523"/>
	<path clip-path="url(#SVGID_2_)" fill="#FFFFFF" d="M195.432,199.547c0,26.799-11.818,48.523-26.396,48.523
		c-14.579,0-26.396-21.725-26.396-48.523s11.817-48.522,26.396-48.522C183.613,151.025,195.432,172.749,195.432,199.547"/>
	
		<ellipse clip-path="url(#SVGID_2_)" fill="none" stroke="#000000" stroke-width="0.85" stroke-miterlimit="10" cx="169.035" cy="199.547" rx="26.396" ry="48.523"/>
	<path clip-path="url(#SVGID_2_)" fill="#FFFFFF" d="M188.513,200.402c0,26.799-11.818,48.523-26.396,48.523
		c-14.58,0-26.397-21.725-26.397-48.523s11.817-48.522,26.397-48.522C176.694,151.879,188.513,173.603,188.513,200.402"/>
	
		<ellipse clip-path="url(#SVGID_2_)" fill="none" stroke="#000000" stroke-width="0.85" stroke-miterlimit="10" cx="162.116" cy="200.402" rx="26.397" ry="48.523"/>
	<path clip-path="url(#SVGID_2_)" fill="#FFFFFF" d="M181.441,201.022c0,26.799-11.817,48.523-26.396,48.523
		s-26.397-21.725-26.397-48.523s11.818-48.522,26.397-48.522S181.441,174.223,181.441,201.022"/>
	
		<ellipse clip-path="url(#SVGID_2_)" fill="none" stroke="#000000" stroke-width="0.85" stroke-miterlimit="10" cx="155.045" cy="201.022" rx="26.397" ry="48.523"/>
	<path clip-path="url(#SVGID_2_)" fill="#FFFFFF" d="M174.232,201.399c0,26.799-11.818,48.523-26.396,48.523
		c-14.58,0-26.398-21.725-26.398-48.523s11.818-48.522,26.398-48.522C162.414,152.876,174.232,174.6,174.232,201.399"/>
	
		<ellipse clip-path="url(#SVGID_2_)" fill="none" stroke="#000000" stroke-width="0.85" stroke-miterlimit="10" cx="147.835" cy="201.399" rx="26.397" ry="48.523"/>
	<path clip-path="url(#SVGID_2_)" fill="#FFFFFF" d="M166.9,201.527c0,26.799-11.818,48.523-26.396,48.523
		c-14.58,0-26.398-21.725-26.398-48.523s11.818-48.522,26.398-48.522C155.082,153.004,166.9,174.728,166.9,201.527"/>
	
		<ellipse clip-path="url(#SVGID_2_)" fill="none" stroke="#000000" stroke-width="0.85" stroke-miterlimit="10" cx="140.503" cy="201.527" rx="26.397" ry="48.523"/>
	<path clip-path="url(#SVGID_2_)" fill="#FFFFFF" d="M166.9,201.527c0,26.799-11.818,48.523-26.396,48.523
		c-14.58,0-26.398-21.725-26.398-48.523s11.818-48.522,26.398-48.522C155.082,153.004,166.9,174.728,166.9,201.527"/>
	
		<ellipse clip-path="url(#SVGID_2_)" fill="none" stroke="#000000" stroke-width="0.85" stroke-miterlimit="10" cx="140.503" cy="201.527" rx="26.397" ry="48.523"/>
	<path clip-path="url(#SVGID_2_)" fill="#FFFFFF" d="M159.566,201.399c0,26.799-11.817,48.523-26.396,48.523
		s-26.397-21.725-26.397-48.523s11.818-48.522,26.397-48.522S159.566,174.6,159.566,201.399"/>
	
		<ellipse clip-path="url(#SVGID_2_)" fill="none" stroke="#000000" stroke-width="0.85" stroke-miterlimit="10" cx="133.17" cy="201.399" rx="26.397" ry="48.523"/>
	<path clip-path="url(#SVGID_2_)" fill="#FFFFFF" d="M152.357,201.022c0,26.799-11.818,48.523-26.396,48.523
		c-14.58,0-26.397-21.725-26.397-48.523s11.817-48.522,26.397-48.522C140.539,152.5,152.357,174.223,152.357,201.022"/>
	
		<ellipse clip-path="url(#SVGID_2_)" fill="none" stroke="#000000" stroke-width="0.85" stroke-miterlimit="10" cx="125.961" cy="201.022" rx="26.397" ry="48.523"/>
	<path clip-path="url(#SVGID_2_)" fill="#FFFFFF" d="M145.286,200.402c0,26.799-11.817,48.523-26.396,48.523
		c-14.579,0-26.397-21.725-26.397-48.523s11.818-48.522,26.397-48.522C133.469,151.879,145.286,173.603,145.286,200.402"/>
	
		<ellipse clip-path="url(#SVGID_2_)" fill="none" stroke="#000000" stroke-width="0.85" stroke-miterlimit="10" cx="118.889" cy="200.402" rx="26.397" ry="48.523"/>
	<path clip-path="url(#SVGID_2_)" fill="#FFFFFF" d="M138.367,199.547c0,26.799-11.818,48.523-26.396,48.523
		c-14.579,0-26.397-21.725-26.397-48.523s11.818-48.522,26.397-48.522C126.549,151.025,138.367,172.749,138.367,199.547"/>
	
		<ellipse clip-path="url(#SVGID_2_)" fill="none" stroke="#000000" stroke-width="0.85" stroke-miterlimit="10" cx="111.97" cy="199.547" rx="26.396" ry="48.523"/>
	<path clip-path="url(#SVGID_2_)" fill="#FFFFFF" d="M131.614,198.466c0,26.799-11.817,48.523-26.396,48.523
		s-26.397-21.725-26.397-48.523c0-26.798,11.818-48.522,26.397-48.522S131.614,171.668,131.614,198.466"/>
	
		<ellipse clip-path="url(#SVGID_2_)" fill="none" stroke="#000000" stroke-width="0.85" stroke-miterlimit="10" cx="105.217" cy="198.466" rx="26.396" ry="48.523"/>
	<path clip-path="url(#SVGID_2_)" fill="#FFFFFF" d="M125.042,197.166c0,26.799-11.818,48.523-26.396,48.523
		c-14.579,0-26.397-21.725-26.397-48.523s11.818-48.522,26.397-48.522C113.224,148.643,125.042,170.367,125.042,197.166"/>
	
		<ellipse clip-path="url(#SVGID_2_)" fill="none" stroke="#000000" stroke-width="0.85" stroke-miterlimit="10" cx="98.645" cy="197.166" rx="26.396" ry="48.523"/>
	<path clip-path="url(#SVGID_2_)" fill="#FFFFFF" d="M118.664,195.654c0,26.799-11.818,48.523-26.396,48.523
		c-14.579,0-26.397-21.725-26.397-48.523c0-26.798,11.818-48.522,26.397-48.522C106.846,147.131,118.664,168.856,118.664,195.654"/>
	
		<ellipse clip-path="url(#SVGID_2_)" fill="none" stroke="#000000" stroke-width="0.85" stroke-miterlimit="10" cx="92.267" cy="195.654" rx="26.396" ry="48.523"/>
	<path clip-path="url(#SVGID_2_)" fill="#FFFFFF" d="M112.495,193.939c0,26.799-11.818,48.523-26.396,48.523
		c-14.58,0-26.397-21.725-26.397-48.523s11.817-48.522,26.397-48.522C100.677,145.417,112.495,167.14,112.495,193.939"/>
	
		<ellipse clip-path="url(#SVGID_2_)" fill="none" stroke="#000000" stroke-width="0.85" stroke-miterlimit="10" cx="86.098" cy="193.939" rx="26.396" ry="48.523"/>
	<path clip-path="url(#SVGID_2_)" fill="#FFFFFF" d="M106.547,192.028c0,26.799-11.817,48.523-26.396,48.523
		s-26.397-21.725-26.397-48.523s11.818-48.522,26.397-48.522S106.547,165.229,106.547,192.028"/>
	
		<ellipse clip-path="url(#SVGID_2_)" fill="none" stroke="#000000" stroke-width="0.85" stroke-miterlimit="10" cx="80.151" cy="192.028" rx="26.396" ry="48.523"/>
	<path clip-path="url(#SVGID_2_)" fill="#FFFFFF" d="M100.837,189.929c0,26.799-11.817,48.523-26.396,48.523
		s-26.396-21.725-26.396-48.523c0-26.8,11.817-48.523,26.396-48.523S100.837,163.129,100.837,189.929"/>
	
		<ellipse clip-path="url(#SVGID_2_)" fill="none" stroke="#000000" stroke-width="0.85" stroke-miterlimit="10" cx="74.441" cy="189.929" rx="26.396" ry="48.523"/>
	<path clip-path="url(#SVGID_2_)" fill="#FFFFFF" d="M95.378,187.649c0,26.799-11.817,48.523-26.395,48.523
		c-14.579,0-26.397-21.725-26.397-48.523s11.818-48.522,26.397-48.522C83.562,139.126,95.378,160.85,95.378,187.649"/>
	
		<ellipse clip-path="url(#SVGID_2_)" fill="none" stroke="#000000" stroke-width="0.85" stroke-miterlimit="10" cx="68.982" cy="187.649" rx="26.396" ry="48.523"/>
	<path clip-path="url(#SVGID_2_)" fill="#FFFFFF" d="M90.185,185.198c0,26.799-11.817,48.523-26.396,48.523
		s-26.396-21.725-26.396-48.523c0-26.8,11.817-48.523,26.396-48.523S90.185,158.398,90.185,185.198"/>
	
		<ellipse clip-path="url(#SVGID_2_)" fill="none" stroke="#000000" stroke-width="0.85" stroke-miterlimit="10" cx="63.789" cy="185.198" rx="26.396" ry="48.523"/>
	<path clip-path="url(#SVGID_2_)" fill="#FFFFFF" d="M85.271,182.581c0,26.799-11.818,48.523-26.396,48.523
		c-14.579,0-26.397-21.725-26.397-48.523s11.818-48.522,26.397-48.522C73.453,134.058,85.271,155.782,85.271,182.581"/>
	
		<ellipse clip-path="url(#SVGID_2_)" fill="none" stroke="#000000" stroke-width="0.85" stroke-miterlimit="10" cx="58.875" cy="182.581" rx="26.396" ry="48.523"/>
	<path clip-path="url(#SVGID_2_)" fill="#FFFFFF" d="M80.649,179.807c0,26.799-11.817,48.523-26.395,48.523
		c-14.579,0-26.397-21.725-26.397-48.523c0-26.8,11.818-48.523,26.397-48.523C68.832,131.284,80.649,153.007,80.649,179.807"/>
	
		<ellipse clip-path="url(#SVGID_2_)" fill="none" stroke="#000000" stroke-width="0.85" stroke-miterlimit="10" cx="54.253" cy="179.807" rx="26.396" ry="48.523"/>
	<path clip-path="url(#SVGID_2_)" fill="#FFFFFF" d="M76.335,176.883c0,26.799-11.817,48.523-26.395,48.523
		c-14.579,0-26.397-21.725-26.397-48.523c0-26.798,11.818-48.522,26.397-48.522C64.519,128.361,76.335,150.085,76.335,176.883"/>
	
		<ellipse clip-path="url(#SVGID_2_)" fill="none" stroke="#000000" stroke-width="0.85" stroke-miterlimit="10" cx="49.939" cy="176.883" rx="26.396" ry="48.523"/>
	<path clip-path="url(#SVGID_2_)" fill="#FFFFFF" d="M72.343,173.819c0,26.799-11.817,48.523-26.395,48.523
		c-14.579,0-26.397-21.725-26.397-48.523s11.818-48.522,26.397-48.522C60.526,125.296,72.343,147.02,72.343,173.819"/>
	
		<ellipse clip-path="url(#SVGID_2_)" fill="none" stroke="#000000" stroke-width="0.85" stroke-miterlimit="10" cx="45.947" cy="173.819" rx="26.396" ry="48.523"/>
	<path clip-path="url(#SVGID_2_)" fill="#FFFFFF" d="M68.687,170.62c0,26.8-11.817,48.523-26.395,48.523
		c-14.579,0-26.397-21.724-26.397-48.523c0-26.799,11.818-48.522,26.397-48.522C56.87,122.097,68.687,143.821,68.687,170.62"/>
	
		<ellipse clip-path="url(#SVGID_2_)" fill="none" stroke="#000000" stroke-width="0.85" stroke-miterlimit="10" cx="42.291" cy="170.62" rx="26.396" ry="48.523"/>
	<path clip-path="url(#SVGID_2_)" fill="#FFFFFF" d="M65.38,167.295c0,26.799-11.817,48.523-26.395,48.523
		c-14.579,0-26.397-21.725-26.397-48.523c0-26.798,11.818-48.522,26.397-48.522C53.563,118.773,65.38,140.498,65.38,167.295"/>
	
		<ellipse clip-path="url(#SVGID_2_)" fill="none" stroke="#000000" stroke-width="0.85" stroke-miterlimit="10" cx="38.984" cy="167.295" rx="26.396" ry="48.523"/>
	<path clip-path="url(#SVGID_2_)" fill="#FFFFFF" d="M62.438,163.852c0,26.799-11.817,48.523-26.395,48.523
		c-14.579,0-26.397-21.725-26.397-48.523s11.818-48.522,26.397-48.522C50.621,115.33,62.438,137.053,62.438,163.852"/>
	
		<ellipse clip-path="url(#SVGID_2_)" fill="none" stroke="#000000" stroke-width="0.85" stroke-miterlimit="10" cx="36.042" cy="163.852" rx="26.396" ry="48.523"/>
	<path clip-path="url(#SVGID_2_)" fill="#FFFFFF" d="M59.874,160.298c0,26.799-11.817,48.523-26.395,48.523
		c-14.579,0-26.397-21.725-26.397-48.523s11.818-48.522,26.397-48.522C48.057,111.776,59.874,133.5,59.874,160.298"/>
	
		<ellipse clip-path="url(#SVGID_2_)" fill="none" stroke="#000000" stroke-width="0.85" stroke-miterlimit="10" cx="33.478" cy="160.298" rx="26.396" ry="48.523"/>
	<path clip-path="url(#SVGID_2_)" fill="#FFFFFF" d="M57.701,156.642c0,26.799-11.817,48.523-26.395,48.523
		c-14.579,0-26.396-21.725-26.396-48.523c0-26.798,11.817-48.522,26.396-48.522C45.884,108.12,57.701,129.844,57.701,156.642"/>
	
		<ellipse clip-path="url(#SVGID_2_)" fill="none" stroke="#000000" stroke-width="0.85" stroke-miterlimit="10" cx="31.305" cy="156.642" rx="26.396" ry="48.523"/>
	<path clip-path="url(#SVGID_2_)" fill="#FFFFFF" d="M55.935,152.89c0,26.799-11.817,48.523-26.395,48.523
		c-14.579,0-26.396-21.725-26.396-48.523c0-26.798,11.817-48.522,26.396-48.522C44.118,104.368,55.935,126.092,55.935,152.89"/>
	
		<ellipse clip-path="url(#SVGID_2_)" fill="none" stroke="#000000" stroke-width="0.85" stroke-miterlimit="10" cx="29.54" cy="152.89" rx="26.396" ry="48.523"/>
	<path clip-path="url(#SVGID_2_)" fill="#FFFFFF" d="M54.589,149.051c0,26.799-11.817,48.523-26.395,48.523
		c-14.579,0-26.396-21.725-26.396-48.523c0-26.798,11.817-48.522,26.396-48.522C42.772,100.529,54.589,122.253,54.589,149.051"/>
	
		<ellipse clip-path="url(#SVGID_2_)" fill="none" stroke="#000000" stroke-width="0.85" stroke-miterlimit="10" cx="28.194" cy="149.051" rx="26.396" ry="48.523"/>
	<path clip-path="url(#SVGID_2_)" fill="#FFFFFF" d="M53.678,145.133c0,26.799-11.817,48.523-26.394,48.523
		c-14.579,0-26.397-21.725-26.397-48.523c0-26.799,11.818-48.523,26.397-48.523C41.861,96.61,53.678,118.334,53.678,145.133"/>
	
		<ellipse clip-path="url(#SVGID_2_)" fill="none" stroke="#000000" stroke-width="0.85" stroke-miterlimit="10" cx="27.283" cy="145.133" rx="26.396" ry="48.523"/>
	<path clip-path="url(#SVGID_2_)" fill="#FFFFFF" d="M53.216,141.142c0,26.799-11.817,48.523-26.395,48.523
		c-14.579,0-26.396-21.725-26.396-48.523c0-26.798,11.817-48.522,26.396-48.522C41.399,92.62,53.216,114.344,53.216,141.142"/>
	
		<ellipse clip-path="url(#SVGID_2_)" fill="none" stroke="#000000" stroke-width="0.85" stroke-miterlimit="10" cx="26.821" cy="141.142" rx="26.396" ry="48.523"/>
	<path clip-path="url(#SVGID_2_)" fill="#FFFFFF" d="M53.216,137.103c0,26.799-11.817,48.523-26.395,48.523
		c-14.579,0-26.396-21.725-26.396-48.523c0-26.799,11.817-48.523,26.396-48.523C41.399,88.58,53.216,110.304,53.216,137.103"/>
	
		<ellipse clip-path="url(#SVGID_2_)" fill="none" stroke="#000000" stroke-width="0.85" stroke-miterlimit="10" cx="26.821" cy="137.103" rx="26.396" ry="48.523"/>
	<path clip-path="url(#SVGID_2_)" fill="#FFFFFF" d="M53.678,133.113c0,26.799-11.817,48.523-26.394,48.523
		c-14.579,0-26.397-21.725-26.397-48.523c0-26.799,11.818-48.523,26.397-48.523C41.861,84.589,53.678,106.313,53.678,133.113"/>
	
		<ellipse clip-path="url(#SVGID_2_)" fill="none" stroke="#000000" stroke-width="0.85" stroke-miterlimit="10" cx="27.283" cy="133.113" rx="26.396" ry="48.523"/>
	<path clip-path="url(#SVGID_2_)" fill="#FFFFFF" d="M54.589,129.194c0,26.799-11.817,48.523-26.394,48.523
		c-14.579,0-26.397-21.725-26.397-48.523c0-26.798,11.818-48.522,26.397-48.522C42.772,80.671,54.589,102.396,54.589,129.194"/>
	
		<ellipse clip-path="url(#SVGID_2_)" fill="none" stroke="#000000" stroke-width="0.85" stroke-miterlimit="10" cx="28.194" cy="129.194" rx="26.396" ry="48.523"/>
	<path clip-path="url(#SVGID_2_)" fill="#FFFFFF" d="M55.935,125.354c0,26.799-11.817,48.524-26.395,48.524
		c-14.579,0-26.396-21.725-26.396-48.524c0-26.798,11.817-48.522,26.396-48.522C44.118,76.833,55.935,98.557,55.935,125.354"/>
	
		<ellipse clip-path="url(#SVGID_2_)" fill="none" stroke="#000000" stroke-width="0.85" stroke-miterlimit="10" cx="29.54" cy="125.354" rx="26.396" ry="48.524"/>
	<path clip-path="url(#SVGID_2_)" fill="#FFFFFF" d="M57.701,121.604c0,26.799-11.817,48.524-26.394,48.524
		c-14.579,0-26.397-21.725-26.397-48.524c0-26.799,11.818-48.523,26.397-48.523C45.884,73.081,57.701,94.805,57.701,121.604"/>
	
		<ellipse clip-path="url(#SVGID_2_)" fill="none" stroke="#000000" stroke-width="0.85" stroke-miterlimit="10" cx="31.305" cy="121.604" rx="26.396" ry="48.524"/>
	<path clip-path="url(#SVGID_2_)" fill="#FFFFFF" d="M59.873,117.947c0,26.799-11.816,48.524-26.394,48.524
		c-14.579,0-26.396-21.725-26.396-48.524c0-26.799,11.817-48.523,26.396-48.523C48.057,69.424,59.873,91.148,59.873,117.947"/>
	
		<ellipse clip-path="url(#SVGID_2_)" fill="none" stroke="#000000" stroke-width="0.85" stroke-miterlimit="10" cx="33.478" cy="117.947" rx="26.395" ry="48.524"/>
	<path clip-path="url(#SVGID_2_)" fill="#FFFFFF" d="M62.437,114.394c0,26.799-11.816,48.524-26.394,48.524
		c-14.579,0-26.396-21.725-26.396-48.524c0-26.799,11.817-48.523,26.396-48.523C50.621,65.871,62.437,87.595,62.437,114.394"/>
	
		<ellipse clip-path="url(#SVGID_2_)" fill="none" stroke="#000000" stroke-width="0.85" stroke-miterlimit="10" cx="36.042" cy="114.394" rx="26.395" ry="48.524"/>
	<path clip-path="url(#SVGID_2_)" fill="#FFFFFF" d="M65.379,110.95c0,26.799-11.816,48.524-26.393,48.524
		c-14.579,0-26.397-21.725-26.397-48.524c0-26.799,11.818-48.523,26.397-48.523C53.563,62.427,65.379,84.151,65.379,110.95"/>
	
		<ellipse clip-path="url(#SVGID_2_)" fill="none" stroke="#000000" stroke-width="0.85" stroke-miterlimit="10" cx="38.984" cy="110.95" rx="26.395" ry="48.524"/>
	<path clip-path="url(#SVGID_2_)" fill="#FFFFFF" d="M68.686,107.625c0,26.799-11.816,48.524-26.393,48.524
		c-14.579,0-26.397-21.725-26.397-48.524c0-26.798,11.818-48.522,26.397-48.522C56.87,59.103,68.686,80.827,68.686,107.625"/>
	
		<ellipse clip-path="url(#SVGID_2_)" fill="none" stroke="#000000" stroke-width="0.85" stroke-miterlimit="10" cx="42.291" cy="107.625" rx="26.395" ry="48.524"/>
	<path clip-path="url(#SVGID_2_)" fill="#FFFFFF" d="M72.342,104.427c0,26.799-11.816,48.524-26.393,48.524
		c-14.579,0-26.397-21.725-26.397-48.524c0-26.799,11.818-48.523,26.397-48.523C60.526,55.904,72.342,77.628,72.342,104.427"/>
	
		<ellipse clip-path="url(#SVGID_2_)" fill="none" stroke="#000000" stroke-width="0.85" stroke-miterlimit="10" cx="45.947" cy="104.427" rx="26.395" ry="48.524"/>
	<path clip-path="url(#SVGID_2_)" fill="#FFFFFF" d="M76.334,101.361c0,26.799-11.816,48.524-26.393,48.524
		c-14.579,0-26.397-21.725-26.397-48.524c0-26.798,11.818-48.522,26.397-48.522C64.519,52.839,76.334,74.563,76.334,101.361"/>
	
		<ellipse clip-path="url(#SVGID_2_)" fill="none" stroke="#000000" stroke-width="0.85" stroke-miterlimit="10" cx="49.939" cy="101.361" rx="26.395" ry="48.524"/>
	<path clip-path="url(#SVGID_2_)" fill="#FFFFFF" d="M80.648,98.438c0,26.799-11.816,48.524-26.393,48.524
		c-14.579,0-26.396-21.725-26.396-48.524c0-26.799,11.817-48.523,26.396-48.523C68.832,49.916,80.648,71.64,80.648,98.438"/>
	
		<ellipse clip-path="url(#SVGID_2_)" fill="none" stroke="#000000" stroke-width="0.85" stroke-miterlimit="10" cx="54.253" cy="98.438" rx="26.395" ry="48.524"/>
	<path clip-path="url(#SVGID_2_)" fill="#FFFFFF" d="M85.269,95.664c0,26.799-11.816,48.524-26.393,48.524
		c-14.579,0-26.396-21.725-26.396-48.524c0-26.799,11.817-48.523,26.396-48.523C73.453,47.141,85.269,68.865,85.269,95.664"/>
	
		<ellipse clip-path="url(#SVGID_2_)" fill="none" stroke="#000000" stroke-width="0.85" stroke-miterlimit="10" cx="58.875" cy="95.664" rx="26.395" ry="48.524"/>
	<path clip-path="url(#SVGID_2_)" fill="#FFFFFF" d="M90.184,93.047c0,26.799-11.817,48.524-26.394,48.524
		c-14.578,0-26.396-21.725-26.396-48.524c0-26.798,11.818-48.522,26.396-48.522C78.367,44.525,90.184,66.249,90.184,93.047"/>
	
		<ellipse clip-path="url(#SVGID_2_)" fill="none" stroke="#000000" stroke-width="0.85" stroke-miterlimit="10" cx="63.789" cy="93.047" rx="26.395" ry="48.524"/>
	<path clip-path="url(#SVGID_2_)" fill="#FFFFFF" d="M95.377,90.595c0,26.799-11.816,48.524-26.393,48.524
		c-14.579,0-26.396-21.725-26.396-48.524c0-26.798,11.817-48.522,26.396-48.522C83.562,42.073,95.377,63.797,95.377,90.595"/>
	
		<ellipse clip-path="url(#SVGID_2_)" fill="none" stroke="#000000" stroke-width="0.85" stroke-miterlimit="10" cx="68.983" cy="90.595" rx="26.395" ry="48.524"/>
	<path clip-path="url(#SVGID_2_)" fill="#FFFFFF" d="M100.836,88.315c0,26.799-11.817,48.524-26.393,48.524
		c-14.579,0-26.396-21.725-26.396-48.524c0-26.799,11.817-48.523,26.396-48.523C89.02,39.792,100.836,61.517,100.836,88.315"/>
	
		<ellipse clip-path="url(#SVGID_2_)" fill="none" stroke="#000000" stroke-width="0.85" stroke-miterlimit="10" cx="74.442" cy="88.315" rx="26.395" ry="48.524"/>
	<path clip-path="url(#SVGID_2_)" fill="#FFFFFF" d="M106.545,86.217c0,26.799-11.816,48.524-26.392,48.524
		c-14.579,0-26.397-21.725-26.397-48.524c0-26.799,11.818-48.523,26.397-48.523C94.729,37.694,106.545,59.418,106.545,86.217"/>
	
		<ellipse clip-path="url(#SVGID_2_)" fill="none" stroke="#000000" stroke-width="0.85" stroke-miterlimit="10" cx="80.151" cy="86.217" rx="26.395" ry="48.524"/>
	<path clip-path="url(#SVGID_2_)" fill="#FFFFFF" d="M112.493,84.306c0,26.799-11.817,48.524-26.393,48.524
		c-14.579,0-26.396-21.725-26.396-48.524c0-26.799,11.817-48.523,26.396-48.523C100.676,35.783,112.493,57.507,112.493,84.306"/>
	
		<ellipse clip-path="url(#SVGID_2_)" fill="none" stroke="#000000" stroke-width="0.85" stroke-miterlimit="10" cx="86.098" cy="84.306" rx="26.395" ry="48.524"/>
	<path clip-path="url(#SVGID_2_)" fill="#FFFFFF" d="M118.662,82.59c0,26.799-11.816,48.524-26.393,48.524
		c-14.579,0-26.396-21.725-26.396-48.524c0-26.799,11.817-48.523,26.396-48.523C106.846,34.067,118.662,55.791,118.662,82.59"/>
	
		<ellipse clip-path="url(#SVGID_2_)" fill="none" stroke="#000000" stroke-width="0.85" stroke-miterlimit="10" cx="92.267" cy="82.59" rx="26.395" ry="48.524"/>
	<path clip-path="url(#SVGID_2_)" fill="#FFFFFF" d="M125.04,81.078c0,26.799-11.816,48.524-26.393,48.524
		c-14.579,0-26.396-21.725-26.396-48.524c0-26.799,11.817-48.523,26.396-48.523C113.224,32.555,125.04,54.279,125.04,81.078"/>
	
		<ellipse clip-path="url(#SVGID_2_)" fill="none" stroke="#000000" stroke-width="0.85" stroke-miterlimit="10" cx="98.645" cy="81.078" rx="26.395" ry="48.524"/>
	<path clip-path="url(#SVGID_2_)" fill="#FFFFFF" d="M131.612,79.777c0,26.799-11.816,48.524-26.392,48.524
		c-14.579,0-26.397-21.725-26.397-48.524c0-26.799,11.818-48.523,26.397-48.523C119.796,31.254,131.612,52.979,131.612,79.777"/>
	
		<ellipse clip-path="url(#SVGID_2_)" fill="none" stroke="#000000" stroke-width="0.85" stroke-miterlimit="10" cx="105.217" cy="79.777" rx="26.395" ry="48.524"/>
	<path clip-path="url(#SVGID_2_)" fill="#FFFFFF" d="M138.365,78.696c0,26.799-11.816,48.524-26.393,48.524
		c-14.579,0-26.396-21.725-26.396-48.524c0-26.799,11.817-48.523,26.396-48.523C126.549,30.173,138.365,51.897,138.365,78.696"/>
	
		<ellipse clip-path="url(#SVGID_2_)" fill="none" stroke="#000000" stroke-width="0.85" stroke-miterlimit="10" cx="111.97" cy="78.696" rx="26.395" ry="48.524"/>
	<path clip-path="url(#SVGID_2_)" fill="#FFFFFF" d="M145.284,77.842c0,26.799-11.816,48.524-26.393,48.524
		c-14.579,0-26.397-21.725-26.397-48.524c0-26.799,11.818-48.523,26.397-48.523C133.468,29.319,145.284,51.043,145.284,77.842"/>
	
		<ellipse clip-path="url(#SVGID_2_)" fill="none" stroke="#000000" stroke-width="0.85" stroke-miterlimit="10" cx="118.889" cy="77.842" rx="26.395" ry="48.524"/>
	<path clip-path="url(#SVGID_2_)" fill="#FFFFFF" d="M152.355,77.222c0,26.799-11.817,48.524-26.394,48.524
		c-14.579,0-26.396-21.725-26.396-48.524c0-26.799,11.817-48.523,26.396-48.523C140.538,28.699,152.355,50.423,152.355,77.222"/>
	
		<ellipse clip-path="url(#SVGID_2_)" fill="none" stroke="#000000" stroke-width="0.85" stroke-miterlimit="10" cx="125.961" cy="77.222" rx="26.395" ry="48.524"/>
	<path clip-path="url(#SVGID_2_)" fill="#FFFFFF" d="M159.564,76.844c0,26.799-11.816,48.524-26.394,48.524
		c-14.579,0-26.396-21.725-26.396-48.524c0-26.799,11.817-48.523,26.396-48.523C147.748,28.321,159.564,50.045,159.564,76.844"/>
	
		<ellipse clip-path="url(#SVGID_2_)" fill="none" stroke="#000000" stroke-width="0.85" stroke-miterlimit="10" cx="133.17" cy="76.844" rx="26.395" ry="48.524"/>
	<path clip-path="url(#SVGID_2_)" fill="#FFFFFF" d="M166.897,76.717c0,26.799-11.816,48.524-26.393,48.524
		c-14.579,0-26.396-21.725-26.396-48.524c0-26.799,11.817-48.523,26.396-48.523C155.081,28.194,166.897,49.918,166.897,76.717"/>
	
		<ellipse clip-path="url(#SVGID_2_)" fill="none" stroke="#000000" stroke-width="0.85" stroke-miterlimit="10" cx="140.503" cy="76.717" rx="26.394" ry="48.524"/>
</g>
<g>
	<defs>
		<rect id="SVGID_3_" x="90.241" width="88.749" height="139.763"/>
	</defs>
	<clipPath id="SVGID_4_">
		<use xlink:href="#SVGID_3_"  overflow="visible"/>
	</clipPath>
	<path clip-path="url(#SVGID_4_)" fill="#FFFFFF" d="M166.897,76.717c0,26.799-11.816,48.524-26.393,48.524
		c-14.579,0-26.396-21.725-26.396-48.524c0-26.799,11.817-48.523,26.396-48.523C155.081,28.194,166.897,49.918,166.897,76.717"/>
	
		<ellipse clip-path="url(#SVGID_4_)" fill="none" stroke="#000000" stroke-width="0.85" stroke-miterlimit="10" cx="140.503" cy="76.717" rx="26.394" ry="48.524"/>
	<path clip-path="url(#SVGID_4_)" fill="#FFFFFF" d="M174.229,76.844c0,26.799-11.816,48.524-26.393,48.524
		c-14.579,0-26.396-21.725-26.396-48.524c0-26.799,11.817-48.523,26.396-48.523C162.413,28.321,174.229,50.045,174.229,76.844"/>
	
		<ellipse clip-path="url(#SVGID_4_)" fill="none" stroke="#000000" stroke-width="0.85" stroke-miterlimit="10" cx="147.835" cy="76.844" rx="26.394" ry="48.524"/>
	<path clip-path="url(#SVGID_4_)" fill="#FFFFFF" d="M181.439,77.222c0,26.799-11.816,48.524-26.394,48.524
		c-14.579,0-26.396-21.725-26.396-48.524c0-26.799,11.817-48.523,26.396-48.523C169.623,28.699,181.439,50.423,181.439,77.222"/>
	
		<ellipse clip-path="url(#SVGID_4_)" fill="none" stroke="#000000" stroke-width="0.85" stroke-miterlimit="10" cx="155.045" cy="77.222" rx="26.395" ry="48.524"/>
	<path clip-path="url(#SVGID_4_)" fill="#FFFFFF" d="M188.51,77.842c0,26.799-11.816,48.524-26.393,48.524
		c-14.579,0-26.396-21.725-26.396-48.524c0-26.799,11.817-48.523,26.396-48.523C176.693,29.319,188.51,51.043,188.51,77.842"/>
	
		<ellipse clip-path="url(#SVGID_4_)" fill="none" stroke="#000000" stroke-width="0.85" stroke-miterlimit="10" cx="162.115" cy="77.842" rx="26.394" ry="48.524"/>
	<path clip-path="url(#SVGID_4_)" fill="#FFFFFF" d="M195.43,78.696c0,26.799-11.817,48.524-26.394,48.524
		c-14.579,0-26.396-21.725-26.396-48.524c0-26.799,11.816-48.523,26.396-48.523C183.612,30.173,195.43,51.897,195.43,78.696"/>
	
		<ellipse clip-path="url(#SVGID_4_)" fill="none" stroke="#000000" stroke-width="0.85" stroke-miterlimit="10" cx="169.035" cy="78.696" rx="26.395" ry="48.524"/>
	<path clip-path="url(#SVGID_4_)" fill="#FFFFFF" d="M202.182,79.777c0,26.799-11.816,48.524-26.393,48.524
		c-14.579,0-26.396-21.725-26.396-48.524c0-26.799,11.816-48.523,26.396-48.523C190.365,31.254,202.182,52.979,202.182,79.777"/>
	
		<ellipse clip-path="url(#SVGID_4_)" fill="none" stroke="#000000" stroke-width="0.85" stroke-miterlimit="10" cx="175.788" cy="79.777" rx="26.394" ry="48.524"/>
	<path clip-path="url(#SVGID_4_)" fill="#FFFFFF" d="M208.755,81.078c0,26.799-11.817,48.524-26.394,48.524
		c-14.579,0-26.396-21.725-26.396-48.524c0-26.799,11.816-48.523,26.396-48.523C196.938,32.555,208.755,54.279,208.755,81.078"/>
	
		<ellipse clip-path="url(#SVGID_4_)" fill="none" stroke="#000000" stroke-width="0.85" stroke-miterlimit="10" cx="182.36" cy="81.078" rx="26.395" ry="48.524"/>
	<path clip-path="url(#SVGID_4_)" fill="#FFFFFF" d="M215.133,82.59c0,26.799-11.817,48.524-26.394,48.524
		c-14.579,0-26.396-21.725-26.396-48.524c0-26.799,11.816-48.523,26.396-48.523C203.315,34.067,215.133,55.791,215.133,82.59"/>
	
		<ellipse clip-path="url(#SVGID_4_)" fill="none" stroke="#000000" stroke-width="0.85" stroke-miterlimit="10" cx="188.738" cy="82.59" rx="26.395" ry="48.524"/>
	<path clip-path="url(#SVGID_4_)" fill="#FFFFFF" d="M221.302,84.306c0,26.799-11.816,48.524-26.394,48.524
		c-14.579,0-26.396-21.725-26.396-48.524c0-26.799,11.816-48.523,26.396-48.523C209.485,35.783,221.302,57.507,221.302,84.306"/>
	
		<ellipse clip-path="url(#SVGID_4_)" fill="none" stroke="#000000" stroke-width="0.85" stroke-miterlimit="10" cx="194.907" cy="84.306" rx="26.395" ry="48.524"/>
	<path clip-path="url(#SVGID_4_)" fill="#FFFFFF" d="M227.249,86.217c0,26.799-11.817,48.524-26.394,48.524
		c-14.579,0-26.396-21.725-26.396-48.524c0-26.799,11.816-48.523,26.396-48.523C215.432,37.694,227.249,59.418,227.249,86.217"/>
	
		<ellipse clip-path="url(#SVGID_4_)" fill="none" stroke="#000000" stroke-width="0.85" stroke-miterlimit="10" cx="200.854" cy="86.217" rx="26.395" ry="48.524"/>
	<path clip-path="url(#SVGID_4_)" fill="#FFFFFF" d="M232.958,88.315c0,26.799-11.816,48.524-26.394,48.524
		c-14.579,0-26.396-21.725-26.396-48.524c0-26.799,11.816-48.523,26.396-48.523C221.142,39.792,232.958,61.517,232.958,88.315"/>
	
		<ellipse clip-path="url(#SVGID_4_)" fill="none" stroke="#000000" stroke-width="0.85" stroke-miterlimit="10" cx="206.563" cy="88.315" rx="26.395" ry="48.524"/>
	<path clip-path="url(#SVGID_4_)" fill="#FFFFFF" d="M238.417,90.595c0,26.799-11.816,48.524-26.394,48.524
		c-14.579,0-26.396-21.725-26.396-48.524c0-26.798,11.816-48.522,26.396-48.522C226.601,42.073,238.417,63.797,238.417,90.595"/>
	
		<ellipse clip-path="url(#SVGID_4_)" fill="none" stroke="#000000" stroke-width="0.85" stroke-miterlimit="10" cx="212.022" cy="90.595" rx="26.395" ry="48.524"/>
	<path clip-path="url(#SVGID_4_)" fill="#FFFFFF" d="M243.611,93.047c0,26.799-11.817,48.524-26.394,48.524
		c-14.579,0-26.396-21.725-26.396-48.524c0-26.798,11.817-48.522,26.396-48.522C231.794,44.525,243.611,66.249,243.611,93.047"/>
	
		<ellipse clip-path="url(#SVGID_4_)" fill="none" stroke="#000000" stroke-width="0.85" stroke-miterlimit="10" cx="217.216" cy="93.047" rx="26.395" ry="48.524"/>
	<path clip-path="url(#SVGID_4_)" fill="#FFFFFF" d="M248.525,95.664c0,26.799-11.816,48.524-26.394,48.524
		c-14.579,0-26.396-21.725-26.396-48.524c0-26.799,11.816-48.523,26.396-48.523C236.709,47.141,248.525,68.865,248.525,95.664"/>
	
		<ellipse clip-path="url(#SVGID_4_)" fill="none" stroke="#000000" stroke-width="0.85" stroke-miterlimit="10" cx="222.131" cy="95.664" rx="26.395" ry="48.524"/>
	<path clip-path="url(#SVGID_4_)" fill="#FFFFFF" d="M253.146,98.438c0,26.799-11.816,48.524-26.394,48.524
		c-14.579,0-26.396-21.725-26.396-48.524c0-26.799,11.816-48.523,26.396-48.523C241.33,49.916,253.146,71.64,253.146,98.438"/>
	
		<ellipse clip-path="url(#SVGID_4_)" fill="none" stroke="#000000" stroke-width="0.85" stroke-miterlimit="10" cx="226.752" cy="98.438" rx="26.395" ry="48.524"/>
	<path clip-path="url(#SVGID_4_)" fill="#FFFFFF" d="M257.461,101.361c0,26.799-11.817,48.524-26.395,48.524
		c-14.579,0-26.396-21.725-26.396-48.524c0-26.798,11.816-48.522,26.396-48.522C245.644,52.839,257.461,74.563,257.461,101.361"/>
	
		<ellipse clip-path="url(#SVGID_4_)" fill="none" stroke="#000000" stroke-width="0.85" stroke-miterlimit="10" cx="231.066" cy="101.361" rx="26.395" ry="48.524"/>
	<path clip-path="url(#SVGID_4_)" fill="#FFFFFF" d="M261.453,104.427c0,26.799-11.817,48.524-26.395,48.524
		c-14.579,0-26.396-21.725-26.396-48.524c0-26.799,11.816-48.523,26.396-48.523C249.636,55.904,261.453,77.628,261.453,104.427"/>
	
		<ellipse clip-path="url(#SVGID_4_)" fill="none" stroke="#000000" stroke-width="0.85" stroke-miterlimit="10" cx="235.058" cy="104.427" rx="26.395" ry="48.524"/>
	<path clip-path="url(#SVGID_4_)" fill="#FFFFFF" d="M265.109,107.625c0,26.799-11.817,48.524-26.395,48.524
		c-14.579,0-26.396-21.725-26.396-48.524c0-26.798,11.816-48.522,26.396-48.522C253.292,59.103,265.109,80.827,265.109,107.625"/>
	
		<ellipse clip-path="url(#SVGID_4_)" fill="none" stroke="#000000" stroke-width="0.85" stroke-miterlimit="10" cx="238.714" cy="107.625" rx="26.395" ry="48.524"/>
	<path clip-path="url(#SVGID_4_)" fill="#FFFFFF" d="M268.416,110.95c0,26.799-11.817,48.524-26.395,48.524
		c-14.579,0-26.396-21.725-26.396-48.524c0-26.799,11.816-48.523,26.396-48.523C256.599,62.427,268.416,84.151,268.416,110.95"/>
	
		<ellipse clip-path="url(#SVGID_4_)" fill="none" stroke="#000000" stroke-width="0.85" stroke-miterlimit="10" cx="242.021" cy="110.95" rx="26.395" ry="48.524"/>
	<path clip-path="url(#SVGID_4_)" fill="#FFFFFF" d="M271.358,114.394c0,26.799-11.817,48.524-26.395,48.524
		c-14.579,0-26.396-21.725-26.396-48.524c0-26.799,11.816-48.523,26.396-48.523C259.541,65.871,271.358,87.595,271.358,114.394"/>
	
		<ellipse clip-path="url(#SVGID_4_)" fill="none" stroke="#000000" stroke-width="0.85" stroke-miterlimit="10" cx="244.963" cy="114.394" rx="26.395" ry="48.524"/>
	<path clip-path="url(#SVGID_4_)" fill="#FFFFFF" d="M273.923,117.947c0,26.799-11.817,48.524-26.395,48.524
		c-14.579,0-26.396-21.725-26.396-48.524c0-26.799,11.816-48.523,26.396-48.523C262.105,69.424,273.923,91.148,273.923,117.947"/>
	
		<ellipse clip-path="url(#SVGID_4_)" fill="none" stroke="#000000" stroke-width="0.85" stroke-miterlimit="10" cx="247.528" cy="117.947" rx="26.395" ry="48.524"/>
	<path clip-path="url(#SVGID_4_)" fill="#FFFFFF" d="M276.096,121.604c0,26.799-11.817,48.524-26.396,48.524
		s-26.396-21.725-26.396-48.524c0-26.799,11.817-48.523,26.396-48.523S276.096,94.805,276.096,121.604"/>
	
		<ellipse clip-path="url(#SVGID_4_)" fill="none" stroke="#000000" stroke-width="0.85" stroke-miterlimit="10" cx="249.7" cy="121.604" rx="26.396" ry="48.524"/>
	<path clip-path="url(#SVGID_4_)" fill="#FFFFFF" d="M277.861,125.354c0,26.799-11.817,48.524-26.395,48.524
		c-14.579,0-26.396-21.725-26.396-48.524c0-26.798,11.817-48.522,26.396-48.522C266.044,76.833,277.861,98.557,277.861,125.354"/>
	
		<ellipse clip-path="url(#SVGID_4_)" fill="none" stroke="#000000" stroke-width="0.85" stroke-miterlimit="10" cx="251.466" cy="125.354" rx="26.396" ry="48.524"/>
	<path clip-path="url(#SVGID_4_)" fill="#FFFFFF" d="M279.207,129.194c0,26.799-11.817,48.523-26.395,48.523
		c-14.579,0-26.396-21.725-26.396-48.523c0-26.798,11.817-48.522,26.396-48.522C267.39,80.671,279.207,102.396,279.207,129.194"/>
	
		<ellipse clip-path="url(#SVGID_4_)" fill="none" stroke="#000000" stroke-width="0.85" stroke-miterlimit="10" cx="252.812" cy="129.194" rx="26.396" ry="48.523"/>
	<path clip-path="url(#SVGID_4_)" fill="#FFFFFF" d="M280.118,133.113c0,26.799-11.817,48.523-26.396,48.523
		c-14.579,0-26.396-21.725-26.396-48.523c0-26.799,11.816-48.523,26.396-48.523C268.301,84.589,280.118,106.313,280.118,133.113"/>
	
		<ellipse clip-path="url(#SVGID_4_)" fill="none" stroke="#000000" stroke-width="0.85" stroke-miterlimit="10" cx="253.723" cy="133.113" rx="26.396" ry="48.523"/>
	<path clip-path="url(#SVGID_4_)" fill="#FFFFFF" d="M280.58,137.103c0,26.799-11.817,48.523-26.395,48.523
		c-14.579,0-26.396-21.725-26.396-48.523c0-26.799,11.817-48.523,26.396-48.523C268.763,88.58,280.58,110.304,280.58,137.103"/>
	
		<ellipse clip-path="url(#SVGID_4_)" fill="none" stroke="#000000" stroke-width="0.85" stroke-miterlimit="10" cx="254.185" cy="137.103" rx="26.396" ry="48.523"/>
	<path clip-path="url(#SVGID_4_)" fill="#FFFFFF" d="M280.58,141.142c0,26.799-11.817,48.523-26.395,48.523
		c-14.579,0-26.396-21.725-26.396-48.523c0-26.798,11.817-48.522,26.396-48.522C268.763,92.62,280.58,114.344,280.58,141.142"/>
	
		<ellipse clip-path="url(#SVGID_4_)" fill="none" stroke="#000000" stroke-width="0.85" stroke-miterlimit="10" cx="254.185" cy="141.142" rx="26.396" ry="48.523"/>
	<path clip-path="url(#SVGID_4_)" fill="#FFFFFF" d="M280.118,145.133c0,26.799-11.817,48.523-26.396,48.523
		c-14.579,0-26.396-21.725-26.396-48.523c0-26.799,11.816-48.523,26.396-48.523C268.301,96.61,280.118,118.334,280.118,145.133"/>
	
		<ellipse clip-path="url(#SVGID_4_)" fill="none" stroke="#000000" stroke-width="0.85" stroke-miterlimit="10" cx="253.723" cy="145.133" rx="26.396" ry="48.523"/>
	<path clip-path="url(#SVGID_4_)" fill="#FFFFFF" d="M279.207,149.051c0,26.799-11.817,48.523-26.396,48.523
		c-14.579,0-26.396-21.725-26.396-48.523c0-26.798,11.816-48.522,26.396-48.522C267.39,100.529,279.207,122.253,279.207,149.051"/>
	
		<ellipse clip-path="url(#SVGID_4_)" fill="none" stroke="#000000" stroke-width="0.85" stroke-miterlimit="10" cx="252.812" cy="149.051" rx="26.396" ry="48.523"/>
	<path clip-path="url(#SVGID_4_)" fill="#FFFFFF" d="M277.861,152.89c0,26.799-11.817,48.523-26.395,48.523
		c-14.579,0-26.396-21.725-26.396-48.523c0-26.798,11.817-48.522,26.396-48.522C266.044,104.368,277.861,126.092,277.861,152.89"/>
	
		<ellipse clip-path="url(#SVGID_4_)" fill="none" stroke="#000000" stroke-width="0.85" stroke-miterlimit="10" cx="251.466" cy="152.89" rx="26.396" ry="48.523"/>
	<path clip-path="url(#SVGID_4_)" fill="#FFFFFF" d="M276.096,156.642c0,26.799-11.817,48.523-26.396,48.523
		c-14.579,0-26.396-21.725-26.396-48.523c0-26.798,11.816-48.522,26.396-48.522C264.278,108.12,276.096,129.844,276.096,156.642"/>
	
		<ellipse clip-path="url(#SVGID_4_)" fill="none" stroke="#000000" stroke-width="0.85" stroke-miterlimit="10" cx="249.7" cy="156.642" rx="26.396" ry="48.523"/>
	<path clip-path="url(#SVGID_4_)" fill="#FFFFFF" d="M273.924,160.298c0,26.799-11.817,48.523-26.396,48.523
		c-14.579,0-26.396-21.725-26.396-48.523s11.817-48.522,26.396-48.522C262.106,111.776,273.924,133.5,273.924,160.298"/>
	
		<ellipse clip-path="url(#SVGID_4_)" fill="none" stroke="#000000" stroke-width="0.85" stroke-miterlimit="10" cx="247.528" cy="160.298" rx="26.396" ry="48.523"/>
	<path clip-path="url(#SVGID_4_)" fill="#FFFFFF" d="M271.359,163.852c0,26.799-11.817,48.523-26.396,48.523
		c-14.579,0-26.396-21.725-26.396-48.523s11.817-48.522,26.396-48.522C259.542,115.33,271.359,137.053,271.359,163.852"/>
	
		<ellipse clip-path="url(#SVGID_4_)" fill="none" stroke="#000000" stroke-width="0.85" stroke-miterlimit="10" cx="244.963" cy="163.852" rx="26.396" ry="48.523"/>
	<path clip-path="url(#SVGID_4_)" fill="#FFFFFF" d="M268.417,167.295c0,26.799-11.818,48.523-26.396,48.523
		c-14.579,0-26.396-21.725-26.396-48.523c0-26.798,11.816-48.522,26.396-48.522C256.599,118.773,268.417,140.498,268.417,167.295"/>
	
		<ellipse clip-path="url(#SVGID_4_)" fill="none" stroke="#000000" stroke-width="0.85" stroke-miterlimit="10" cx="242.021" cy="167.295" rx="26.396" ry="48.523"/>
	<path clip-path="url(#SVGID_4_)" fill="#FFFFFF" d="M265.11,170.62c0,26.8-11.817,48.523-26.396,48.523
		c-14.579,0-26.396-21.724-26.396-48.523c0-26.799,11.817-48.522,26.396-48.522C253.293,122.097,265.11,143.821,265.11,170.62"/>
	
		<ellipse clip-path="url(#SVGID_4_)" fill="none" stroke="#000000" stroke-width="0.85" stroke-miterlimit="10" cx="238.714" cy="170.62" rx="26.396" ry="48.523"/>
	<path clip-path="url(#SVGID_4_)" fill="#FFFFFF" d="M261.454,173.819c0,26.799-11.818,48.523-26.396,48.523
		c-14.579,0-26.396-21.725-26.396-48.523s11.816-48.522,26.396-48.522C249.636,125.296,261.454,147.02,261.454,173.819"/>
	
		<ellipse clip-path="url(#SVGID_4_)" fill="none" stroke="#000000" stroke-width="0.85" stroke-miterlimit="10" cx="235.058" cy="173.819" rx="26.396" ry="48.523"/>
	<path clip-path="url(#SVGID_4_)" fill="#FFFFFF" d="M257.462,176.883c0,26.799-11.817,48.523-26.396,48.523
		s-26.396-21.725-26.396-48.523c0-26.798,11.816-48.522,26.396-48.522S257.462,150.085,257.462,176.883"/>
	
		<ellipse clip-path="url(#SVGID_4_)" fill="none" stroke="#000000" stroke-width="0.85" stroke-miterlimit="10" cx="231.066" cy="176.883" rx="26.396" ry="48.523"/>
	<path clip-path="url(#SVGID_4_)" fill="#FFFFFF" d="M253.148,179.807c0,26.799-11.818,48.523-26.396,48.523
		c-14.579,0-26.396-21.725-26.396-48.523c0-26.8,11.817-48.523,26.396-48.523C241.33,131.284,253.148,153.007,253.148,179.807"/>
	
		<ellipse clip-path="url(#SVGID_4_)" fill="none" stroke="#000000" stroke-width="0.85" stroke-miterlimit="10" cx="226.752" cy="179.807" rx="26.396" ry="48.523"/>
	<path clip-path="url(#SVGID_4_)" fill="#FFFFFF" d="M248.527,182.581c0,26.799-11.818,48.523-26.396,48.523
		c-14.579,0-26.396-21.725-26.396-48.523s11.817-48.522,26.396-48.522C236.709,134.058,248.527,155.782,248.527,182.581"/>
	
		<ellipse clip-path="url(#SVGID_4_)" fill="none" stroke="#000000" stroke-width="0.85" stroke-miterlimit="10" cx="222.131" cy="182.581" rx="26.396" ry="48.523"/>
	<path clip-path="url(#SVGID_4_)" fill="#FFFFFF" d="M243.612,185.198c0,26.799-11.817,48.523-26.396,48.523
		c-14.579,0-26.396-21.725-26.396-48.523c0-26.8,11.817-48.523,26.396-48.523C231.795,136.674,243.612,158.398,243.612,185.198"/>
	
		<ellipse clip-path="url(#SVGID_4_)" fill="none" stroke="#000000" stroke-width="0.85" stroke-miterlimit="10" cx="217.216" cy="185.198" rx="26.396" ry="48.523"/>
	<path clip-path="url(#SVGID_4_)" fill="#FFFFFF" d="M238.419,187.649c0,26.799-11.817,48.523-26.396,48.523
		s-26.396-21.725-26.396-48.523s11.817-48.522,26.396-48.522S238.419,160.85,238.419,187.649"/>
	
		<ellipse clip-path="url(#SVGID_4_)" fill="none" stroke="#000000" stroke-width="0.85" stroke-miterlimit="10" cx="212.022" cy="187.649" rx="26.396" ry="48.523"/>
	<path clip-path="url(#SVGID_4_)" fill="#FFFFFF" d="M232.96,189.929c0,26.799-11.817,48.523-26.396,48.523
		s-26.396-21.725-26.396-48.523c0-26.8,11.816-48.523,26.396-48.523S232.96,163.129,232.96,189.929"/>
	
		<ellipse clip-path="url(#SVGID_4_)" fill="none" stroke="#000000" stroke-width="0.85" stroke-miterlimit="10" cx="206.564" cy="189.929" rx="26.396" ry="48.523"/>
	<path clip-path="url(#SVGID_4_)" fill="#FFFFFF" d="M227.251,192.028c0,26.799-11.818,48.523-26.396,48.523
		c-14.579,0-26.396-21.725-26.396-48.523s11.817-48.522,26.396-48.522C215.433,143.505,227.251,165.229,227.251,192.028"/>
	
		<ellipse clip-path="url(#SVGID_4_)" fill="none" stroke="#000000" stroke-width="0.85" stroke-miterlimit="10" cx="200.854" cy="192.028" rx="26.396" ry="48.523"/>
	<path clip-path="url(#SVGID_4_)" fill="#FFFFFF" d="M221.304,193.939c0,26.799-11.817,48.523-26.396,48.523
		s-26.396-21.725-26.396-48.523s11.817-48.522,26.396-48.522S221.304,167.14,221.304,193.939"/>
	
		<ellipse clip-path="url(#SVGID_4_)" fill="none" stroke="#000000" stroke-width="0.85" stroke-miterlimit="10" cx="194.907" cy="193.939" rx="26.396" ry="48.523"/>
	<path clip-path="url(#SVGID_4_)" fill="#FFFFFF" d="M215.135,195.654c0,26.799-11.818,48.523-26.396,48.523
		c-14.579,0-26.396-21.725-26.396-48.523c0-26.798,11.817-48.522,26.396-48.522C203.316,147.131,215.135,168.856,215.135,195.654"/>
	
		<ellipse clip-path="url(#SVGID_4_)" fill="none" stroke="#000000" stroke-width="0.85" stroke-miterlimit="10" cx="188.738" cy="195.654" rx="26.396" ry="48.523"/>
	<path clip-path="url(#SVGID_4_)" fill="#FFFFFF" d="M208.757,197.166c0,26.799-11.818,48.523-26.396,48.523
		c-14.579,0-26.396-21.725-26.396-48.523s11.817-48.522,26.396-48.522C196.938,148.643,208.757,170.367,208.757,197.166"/>
	
		<ellipse clip-path="url(#SVGID_4_)" fill="none" stroke="#000000" stroke-width="0.85" stroke-miterlimit="10" cx="182.36" cy="197.166" rx="26.396" ry="48.523"/>
	<path clip-path="url(#SVGID_4_)" fill="#FFFFFF" d="M202.185,198.466c0,26.799-11.818,48.523-26.396,48.523
		c-14.58,0-26.396-21.725-26.396-48.523c0-26.798,11.816-48.522,26.396-48.522C190.366,149.944,202.185,171.668,202.185,198.466"/>
	
		<ellipse clip-path="url(#SVGID_4_)" fill="none" stroke="#000000" stroke-width="0.85" stroke-miterlimit="10" cx="175.788" cy="198.466" rx="26.396" ry="48.523"/>
	<path clip-path="url(#SVGID_4_)" fill="#FFFFFF" d="M195.432,199.547c0,26.799-11.818,48.523-26.396,48.523
		c-14.579,0-26.396-21.725-26.396-48.523s11.817-48.522,26.396-48.522C183.613,151.025,195.432,172.749,195.432,199.547"/>
	
		<ellipse clip-path="url(#SVGID_4_)" fill="none" stroke="#000000" stroke-width="0.85" stroke-miterlimit="10" cx="169.035" cy="199.547" rx="26.396" ry="48.523"/>
	<path clip-path="url(#SVGID_4_)" fill="#FFFFFF" d="M188.513,200.402c0,26.799-11.818,48.523-26.396,48.523
		c-14.58,0-26.397-21.725-26.397-48.523s11.817-48.522,26.397-48.522C176.694,151.879,188.513,173.603,188.513,200.402"/>
	
		<ellipse clip-path="url(#SVGID_4_)" fill="none" stroke="#000000" stroke-width="0.85" stroke-miterlimit="10" cx="162.116" cy="200.402" rx="26.397" ry="48.523"/>
	<path clip-path="url(#SVGID_4_)" fill="#FFFFFF" d="M181.441,201.022c0,26.799-11.817,48.523-26.396,48.523
		s-26.397-21.725-26.397-48.523s11.818-48.522,26.397-48.522S181.441,174.223,181.441,201.022"/>
	
		<ellipse clip-path="url(#SVGID_4_)" fill="none" stroke="#000000" stroke-width="0.85" stroke-miterlimit="10" cx="155.045" cy="201.022" rx="26.397" ry="48.523"/>
	<path clip-path="url(#SVGID_4_)" fill="#FFFFFF" d="M174.232,201.399c0,26.799-11.818,48.523-26.396,48.523
		c-14.58,0-26.398-21.725-26.398-48.523s11.818-48.522,26.398-48.522C162.414,152.876,174.232,174.6,174.232,201.399"/>
	
		<ellipse clip-path="url(#SVGID_4_)" fill="none" stroke="#000000" stroke-width="0.85" stroke-miterlimit="10" cx="147.835" cy="201.399" rx="26.397" ry="48.523"/>
	<path clip-path="url(#SVGID_4_)" fill="#FFFFFF" d="M166.9,201.527c0,26.799-11.818,48.523-26.396,48.523
		c-14.58,0-26.398-21.725-26.398-48.523s11.818-48.522,26.398-48.522C155.082,153.004,166.9,174.728,166.9,201.527"/>
	
		<ellipse clip-path="url(#SVGID_4_)" fill="none" stroke="#000000" stroke-width="0.85" stroke-miterlimit="10" cx="140.503" cy="201.527" rx="26.397" ry="48.523"/>
</g>
</svg>
